<?xml version="1.0" encoding="utf-8"?>
<!DOCTYPE svg PUBLIC "-//W3C//DTD SVG 1.0//EN" "http://www.w3.org/TR/2001/REC-SVG-20010904/DTD/svg10.dtd">
<svg version="1.0" xmlns="http://www.w3.org/2000/svg" width="481px" height="508px" viewBox="0 0 481 508" preserveAspectRatio="xMidYMid meet">
 <g fill="#8c9796">
  <path d="M110.40 439.75 c-4.85 -1.80 -9.30 -6.50 -11.45 -12.20 -1.35 -3.50 -1.85 -11.30 -0.95 -14.95 0.80 -3.40 2.85 -6.55 5.50 -8.35 2 -1.40 2.50 -1.50 7.45 -1.65 5.20 -0.20 5.40 -0.15 8.50 1.50 2.45 1.25 3.80 2.40 5.60 4.75 3.75 4.90 4.65 7.75 4.65 15.15 0.05 5.85 -0.05 6.45 -1.35 9.25 -2.70 5.75 -5.15 7.25 -11.70 7.20 -2.40 0 -5.25 -0.35 -6.25 -0.70z"/>
  <path d="M143 332.50 c-1.80 -0.50 -9.45 -2.50 -17 -4.40 -36.90 -9.45 -38.25 -9.80 -39.80 -11.35 -1 -1 -1.05 -1.60 -1.35 -14.80 -0.10 -7.55 -0.20 -25.15 -0.15 -39.20 0.05 -22.30 0.15 -25.75 0.85 -27.50 1.95 -4.85 20.15 -40.60 21.55 -42.35 1.90 -2.45 5.45 -4.25 18.85 -9.65 5.65 -2.25 12.55 -5.20 15.30 -6.50 4.55 -2.20 5.40 -2.40 9.55 -2.65 4.25 -0.20 10.85 0.55 21.20 2.45 4.75 0.90 4.60 0.80 4.35 3.10 -0.20 1.85 -1.90 6.45 -3 8.25 -0.40 0.60 -9.05 4.95 -13.60 6.80 -3.20 1.35 -5.60 3.25 -7.20 5.75 -3.15 4.85 -3.05 2.65 -3.05 70.95 l0 62.10 -1.60 -0.05 c-0.90 0 -3.10 -0.45 -4.90 -0.95z m-7 -22.50 c0 -1.10 -2.80 -2.10 -12.50 -4.45 -5.65 -1.40 -13.60 -3.40 -17.75 -4.50 -4.65 -1.25 -7.70 -1.80 -7.95 -1.50 -0.95 0.90 0.70 1.60 9.30 3.80 4.75 1.25 12.80 3.30 17.90 4.65 9.85 2.55 11 2.80 11 2z m0 -14.45 c0 -0.75 -1.30 -1.55 -4 -2.35 -7.80 -2.30 -33.80 -8.55 -34.20 -8.20 -1.10 1.05 2.90 2.25 33.95 10.25 3.10 0.80 4.25 0.90 4.25 0.30z m-0.25 -15.10 c0 -0.75 0.25 -0.70 -20.25 -6 -17.40 -4.55 -16.80 -4.40 -17.50 -3.95 -1.10 0.70 -0.10 1.35 3.10 2.15 8.80 2.25 22.30 5.70 27.65 7.15 6.40 1.70 7 1.75 7 0.65z"/>
  <path d="M368.80 114.40 c-0.40 -1.50 -0.40 -41.80 0 -43.25 0.20 -0.65 0.65 -1.15 1 -1.15 0.60 0 0.70 3.70 0.70 22.75 0 19.05 -0.10 22.75 -0.70 22.75 -0.35 0 -0.80 -0.50 -1 -1.10z"/>
 </g>
 <g fill="#e8862d">
  <path d="M306.75 467.80 c-4.05 -1.25 -4.25 -1.55 -4.25 -6.05 0 -2.20 0.15 -4.50 0.30 -5.15 0.20 -0.65 2.85 -3.15 6.15 -5.80 3.20 -2.60 7.70 -6.50 10.05 -8.70 l4.25 -3.95 0.05 -53.60 c0 -35.30 0.20 -53.75 0.50 -54.05 0.30 -0.30 2.60 -1.10 5.15 -1.75 2.55 -0.70 6.20 -1.95 8.10 -2.80 2.30 -1 4.10 -1.45 5.30 -1.35 l1.75 0.15 -0.05 36.25 c-0.05 19.95 0.05 41.50 0.25 47.90 0.40 13.35 0 12.65 5.15 9.20 2.65 -1.75 2.90 -1.85 7 -1.85 5.20 0 8.85 1.20 9.60 3.10 0.25 0.65 0.45 2.70 0.45 4.55 0 2.75 -0.20 3.60 -1.15 4.65 -1.55 1.90 -13.15 11.95 -15.85 13.80 -1.25 0.85 -4.45 3.60 -7.10 6.10 -2.65 2.50 -5 4.55 -5.25 4.55 -0.25 0 -1.65 1.25 -3.15 2.75 -1.50 1.50 -3 2.75 -3.30 2.75 -0.30 0 -0.90 0.35 -1.25 0.80 -1.35 1.65 -9.50 8.25 -10.75 8.70 -1.80 0.70 -9.55 0.55 -11.95 -0.20z"/>
  <path d="M154.65 408.65 c-0.15 -0.50 -0.70 -2 -1.25 -3.30 -0.50 -1.30 -0.90 -3.25 -0.90 -4.35 0 -1.95 0.05 -2 5.65 -5.65 3.05 -2.05 7.95 -5.15 10.85 -6.95 2.90 -1.80 8.50 -5.35 12.50 -7.90 4 -2.55 7.75 -4.95 8.40 -5.35 l1.20 -0.75 -1.75 -1.55 c-1.95 -1.80 -3.35 -5 -3.35 -7.60 0 -1.70 0.05 -1.75 2.05 -1.75 1.90 0 10.35 1.90 13.15 2.95 0.65 0.30 1.90 1.50 2.75 2.75 1.40 2 1.55 2.60 1.55 5.95 l0 3.75 -2.40 2.20 c-1.35 1.15 -4.10 3.15 -6.15 4.35 -2.05 1.20 -4.65 2.90 -5.80 3.75 -1.15 0.85 -3.55 2.45 -5.40 3.55 -1.85 1.10 -4.45 2.95 -5.80 4.10 -1.30 1.15 -3.85 2.75 -5.60 3.60 -1.75 0.85 -4.20 2.40 -5.45 3.55 -1.25 1.10 -2.55 2 -2.90 2 -0.30 0 -1.15 0.45 -1.85 1 -0.70 0.55 -1.65 1 -2.10 1 -0.45 0 -1.25 0.35 -1.75 0.75 -1.45 1.10 -5.25 1 -5.65 -0.10z"/>
  <path d="M312.50 391.70 c-1.25 -0.40 -6.40 -1.85 -11.50 -3.25 -16.75 -4.55 -20.20 -5.50 -23 -6.20 -1.50 -0.40 -12.30 -3.30 -24 -6.45 -11.70 -3.15 -23.95 -6.45 -27.25 -7.30 -3.30 -0.90 -8.25 -2.25 -11 -3 -2.75 -0.80 -7.15 -2 -9.75 -2.70 -24.15 -6.30 -33.90 -8.90 -34.85 -9.30 -1.10 -0.45 -1.15 -0.80 -1.20 -5.60 l0 -5.15 -2.20 4.50 c-4.50 9.15 -12.95 26.60 -14.45 30 -0.90 1.95 -2.65 5.60 -3.95 8.15 -2.30 4.45 -2.40 4.60 -4.05 4.60 -1.25 0 -1.95 -0.35 -2.65 -1.25 -1.20 -1.65 -5.90 -5.20 -8.85 -6.75 l-2.40 -1.25 0.20 -2.55 c0.15 -1.65 1.15 -4.60 3.05 -8.75 1.55 -3.40 4.35 -9.80 6.25 -14.20 1.90 -4.40 4.15 -9.55 5 -11.50 0.85 -1.90 1.65 -3.90 1.80 -4.35 0.15 -0.60 0.80 -0.90 1.70 -0.90 0.80 0 2.40 -0.35 3.55 -0.75 2.85 -1 11.05 -5.15 15.25 -7.65 4.35 -2.70 6.15 -2.75 8 -0.40 0.90 1.20 1.30 2.35 1.30 3.75 0 2 0.05 2.05 1.75 2.05 1.55 0 2 0.35 4.85 4.05 1.70 2.20 3.20 3.80 3.30 3.50 0.10 -0.30 -2.05 -3.30 -4.75 -6.65 -2.70 -3.35 -5.35 -6.75 -5.90 -7.45 -0.55 -0.75 -2 -2.65 -3.25 -4.25 l-2.25 -2.95 -0.15 -8.25 c-0.10 -4.55 0.05 -8.50 0.25 -8.75 0.20 -0.30 1.20 -1.05 2.15 -1.65 l1.75 -1.10 -2.10 0 -2.15 0 0 -9.40 c0 -5.20 -0.15 -12.85 -0.35 -17.05 l-0.30 -7.60 2.10 0.15 2.10 0.15 1.70 4 c0.95 2.15 2.80 5.75 4.05 8 3 5.10 10.50 16.65 11.80 18.05 0.50 0.60 1.25 2.40 1.65 3.95 0.35 1.60 1 3.10 1.45 3.35 1.30 0.75 1.05 4 -0.40 5.35 -1 0.95 -1.65 1.10 -3.45 1 -2.60 -0.25 -2.80 -0.75 2.15 5.30 1.85 2.20 5.15 6.30 7.40 9.05 2.25 2.80 5.65 6.95 7.60 9.20 2 2.30 3.90 4.70 4.35 5.35 0.80 1.20 2.10 1.65 12.15 4.35 15.35 4.15 31.95 8.50 48 12.60 10.05 2.60 20.15 5.25 22.50 5.95 2.35 0.65 8.30 2.25 13.20 3.50 4.95 1.25 9.15 2.55 9.40 2.85 0.20 0.35 0.40 5.55 0.40 11.55 l0 10.85 -1.85 -0.05 c-1.05 0 -2.90 -0.35 -4.15 -0.75z m-125 -82.70 c-0.60 -0.80 -1.20 -1.50 -1.30 -1.50 -0.15 0 0.20 0.70 0.80 1.50 0.60 0.85 1.20 1.50 1.30 1.50 0.15 0 -0.20 -0.65 -0.80 -1.50z m-5.15 -6.60 c-2.40 -2.80 -2.95 -2.95 -5.40 -1.45 l-1.45 0.90 2.70 -0.25 c2.55 -0.20 2.75 -0.15 4.30 1.60 2.55 2.75 2.40 2.15 -0.15 -0.80z"/>
  <path d="M265 334.95 c-21 -1.85 -42.95 -12.30 -59.35 -28.15 -10.35 -9.95 -17.85 -20.25 -23.90 -32.55 -6.15 -12.55 -9 -22.65 -10.60 -37.20 -1.30 -12.55 -0.35 -25.30 2.85 -38.05 1.75 -6.95 2.85 -9.80 7.10 -18.25 l3.25 -6.50 2.30 -0.15 c2.75 -0.20 2.75 -0.20 1.60 6.15 -1.10 5.95 -1.50 19.90 -0.80 27 1.80 17.60 6.85 33.90 15.60 50.75 16.45 31.50 43.80 55.70 75.35 66.70 5.45 1.90 15.55 4.30 18.05 4.30 1.45 0 1.55 0.10 1.55 1.95 0 1.10 -0.20 2.10 -0.40 2.25 -0.25 0.15 -3.90 0.70 -8.10 1.30 -7.95 1.05 -16 1.20 -24.50 0.45z"/>
  <path d="M151.50 268.90 c0 -41.10 0.20 -64.30 0.50 -65.45 1.05 -3.75 2.40 -5.05 8.50 -8.05 4.15 -2.05 6.35 -2.85 7.90 -2.85 l2.10 -0.05 0 1.95 c0 1.05 -0.35 2.90 -0.80 4.10 -1.35 3.85 -3.20 14 -3.75 20.70 -0.80 9.50 0.15 21.60 2.35 29.90 0.75 2.75 0.80 7.20 0.75 39.60 l-0.05 36.50 -1.10 0.85 c-0.65 0.50 -1.35 0.90 -1.65 0.90 -0.25 0.05 -1.30 0.70 -2.25 1.50 -0.95 0.85 -2.15 1.50 -2.65 1.50 -0.50 0 -1.90 0.55 -3.15 1.25 -1.45 0.80 -3 1.25 -4.45 1.25 l-2.25 0 0 -63.60z"/>
  <path d="M296.75 327 c-17.90 -1.90 -39.50 -11.40 -56.25 -24.90 -4.70 -3.75 -16.45 -15.60 -20.65 -20.85 -23.60 -29.35 -34.05 -64.65 -29.85 -100.50 1.45 -12.15 6.05 -25.60 11.55 -33.85 3.50 -5.20 9.60 -12.10 13.50 -15.15 15.45 -12.35 36.55 -17 56.50 -12.45 3.35 0.75 3.45 0.80 3.45 2.35 0 0.85 -0.35 1.95 -0.85 2.45 -0.75 0.85 -0.75 0.90 0.40 0.90 0.65 0 2.50 -0.20 4.05 -0.50 13.15 -2.10 44.45 -3 51.20 -1.40 11.95 2.80 23.90 10 36.10 21.75 l4.65 4.50 -0.15 5.70 -0.15 5.70 -2.35 0.15 c-2.25 0.15 -2.40 0.05 -4.75 -2.50 -9.65 -10.55 -12.95 -13.25 -21.50 -17.85 -3 -1.65 -7.45 -3.60 -9.85 -4.35 -3.90 -1.20 -4.85 -1.30 -9.70 -1.05 -6.70 0.30 -10.35 1.30 -14.05 3.80 -4 2.70 -8.80 8.10 -10.60 11.85 -4.95 10.40 -5.20 25.05 -0.65 38.30 2.60 7.70 8.55 19.45 12.50 24.65 4.30 5.75 11.70 13.10 17.45 17.45 7.05 5.30 17.10 9.70 24.65 10.85 4.90 0.75 9.90 -0.15 15.25 -2.75 10.15 -4.90 16.75 -15.95 17.70 -29.80 0.30 -4.55 0.40 -4.95 2.85 -9.10 l2.55 -4.35 2.35 -0.05 c2.15 0 2.40 0.10 2.75 1.40 0.25 0.75 0.40 5.95 0.40 11.60 0 9.95 -0.05 10.45 -1.60 16 -1.40 5.15 -4.15 12.55 -8.50 22.75 -0.85 1.95 -3.25 7 -5.35 11.25 -13.45 26.90 -27 40.60 -47.05 47.50 -7.25 2.50 -9.15 2.75 -22.50 2.75 -12.45 0 -12.55 0 -18.85 -1.60 -14.85 -3.80 -26 -9.45 -39.35 -20.10 -6.85 -5.40 -13.20 -12 -20.20 -21 -9.70 -12.35 -17.65 -30.20 -21.05 -47.05 -6.10 -30.30 -0.05 -57.50 16.65 -75.20 1.55 -1.60 2.30 -2.70 1.70 -2.35 -1.75 0.90 -9.15 10.50 -11.90 15.35 -5.25 9.40 -7.60 16.30 -9.25 27.70 -2.05 14.10 -0.65 29.15 4.30 45 9.70 31.10 32.95 58.45 61.45 72.25 12.70 6.20 22.60 8.75 34.75 9.15 9.25 0.25 13.45 -0.40 23.35 -3.65 10.05 -3.30 17.75 -7.95 25.60 -15.50 4.35 -4.20 9.25 -9.85 12 -13.85 1.45 -2.20 1.80 -2.40 3.55 -2.40 1.95 0 2 0.05 2 1.65 0 3.85 -3.90 12.90 -8.65 20 -3.30 4.95 -11.35 13.40 -15.85 16.65 -8.10 5.85 -18.90 10.65 -26 11.50 -1.50 0.20 -2.95 0.50 -3.25 0.70 -0.75 0.60 -20 0.95 -24.50 0.50z m-55.50 -192.90 c3.40 -1.70 11.10 -4.60 13.90 -5.15 1.40 -0.30 3.60 -0.85 4.85 -1.20 1.25 -0.35 4.70 -1.05 7.75 -1.55 6.45 -1.05 6.15 -1.60 -0.45 -0.75 -7.80 1.05 -20.10 4.80 -25.80 7.95 -3.35 1.85 -8.85 5.50 -9.30 6.15 -0.15 0.30 1.35 -0.55 3.35 -1.90 2.05 -1.40 4.60 -2.95 5.70 -3.55z"/>
 </g>
 <g fill="#5885b1">
  <path d="M341.25 215.45 c-3.80 -0.80 -10.25 -4.05 -12.35 -6.25 -4.45 -4.70 -6.15 -11.35 -4.95 -19.10 1.80 -11.60 13.15 -21.60 27.80 -24.65 6.95 -1.45 12.60 -1.10 19.95 1.25 l3.80 1.20 0 -52.45 0 -52.45 5.20 0 5.25 0 0.80 2.85 c2.20 7.50 5.70 13.05 12.65 20.05 5.50 5.45 18.55 17.50 19.75 18.15 0.85 0.50 6.80 7.85 9.25 11.55 2 2.95 4.25 8.50 5.45 13.40 0.65 2.80 0.90 5.70 0.85 11.25 0 6.65 -0.15 8 -1.35 12 -2.10 6.95 -4.85 12.10 -8.65 16.20 -2.85 3.05 -3.55 3.55 -5 3.55 -1.65 0 -1.70 -0.05 -1.70 -1.85 0 -1.05 0.70 -4.30 1.50 -7.25 2.10 -7.50 3.15 -14 2.75 -17.10 -1.85 -14.40 -9.10 -24.70 -21.95 -31.15 -4.95 -2.50 -12.15 -5.65 -12.85 -5.65 -0.25 0 -0.50 17.85 -0.55 41.40 l-0.15 41.35 -1.40 3.50 c-2.80 7.15 -8.60 13.05 -16.15 16.55 -6.85 3.15 -9.75 3.75 -17.95 3.95 -4.10 0.10 -8.60 0 -10 -0.30z"/>
 </g>
 <g fill="#304f6d">
  <path d="M339.75 223.50 c-2.65 -0.35 -5.30 -1.25 -7 -2.30 -0.55 -0.30 -1.80 -0.85 -2.75 -1.15 -2.25 -0.70 -9.35 -7 -11.05 -9.70 -2.20 -3.65 -3.95 -9.85 -3.95 -14.20 0 -4.50 0.70 -9.20 1.80 -12.50 1 -2.85 5.10 -9.15 7.95 -12.15 1.20 -1.25 2.70 -2.85 3.35 -3.60 1.35 -1.60 7.70 -5.90 8.60 -5.90 0.35 0 1.85 -0.65 3.35 -1.45 1.50 -0.80 4.95 -2.05 7.70 -2.80 4.55 -1.25 5.50 -1.35 10.80 -1.10 5.40 0.25 5.95 0.40 7.25 1.60 2.30 2.15 2.95 1.55 3.10 -2.85 0.10 -3.10 -0.05 -4.10 -0.90 -5.50 -0.80 -1.35 -1 -2.50 -1 -6.55 0 -4.70 0.05 -4.90 1 -4.60 1 0.30 1 0.10 1 -37.15 0 -41.45 -0.15 -39.55 3.25 -42.55 l1.80 -1.55 6.95 0 7 0 1.80 1.60 c1.40 1.30 2.10 2.70 3.40 6.70 2.65 8.10 6.50 13 19.30 24.35 13.65 12.15 18.10 17.15 22.70 25.40 6.50 11.80 7.70 28.30 3 41.55 -3.95 11 -11.85 21.05 -17.10 21.75 -2.45 0.30 -6.90 -1.95 -8.45 -4.30 -2.20 -3.25 -2 -5.80 1.15 -14.25 1.20 -3.10 2.30 -11.75 1.95 -15.05 -1.20 -11.80 -5.95 -18.35 -18.40 -25.45 -4.05 -2.30 -3.85 -3.85 -3.85 26.45 0 22.75 0.10 26.95 0.75 28.80 0.45 1.20 0.75 3.55 0.70 5.20 0 1.65 0.10 5.50 0.30 8.50 0.40 5.50 0.40 5.50 -1 7.15 -0.75 0.85 -1.70 1.60 -2.15 1.60 -0.95 0.05 -6.10 8.40 -6.10 9.90 0 2.60 -7.80 10.15 -12.10 11.75 -8.70 3.20 -11.65 3.90 -17.85 4.35 -7.10 0.55 -12.60 0.55 -16.30 0z m20.95 -10.50 c11.80 -3.70 19.55 -10.10 23.15 -19.25 l1.40 -3.50 0.15 -41.85 c0.10 -34.85 0.25 -41.90 0.80 -41.90 1 0 9.75 3.70 15.30 6.50 13.65 6.85 21.15 17.85 22.30 32.75 0.35 4.65 -0.50 10.40 -2.85 18.80 -0.85 3.05 -1.40 5.65 -1.30 5.75 0.10 0.15 1.70 -1.40 3.55 -3.35 3.80 -4.15 6.55 -9.30 8.60 -16.20 3.10 -10.35 1 -25 -4.90 -33.65 -2.45 -3.70 -8.40 -11.05 -9.25 -11.55 -1.20 -0.65 -14.25 -12.70 -19.75 -18.15 -6.95 -7 -10.45 -12.55 -12.65 -20.05 l-0.80 -2.85 -3.75 0 -3.70 0 0 53.05 c0 50.35 -0.05 53.05 -0.85 52.70 -4.40 -1.70 -10.40 -3.40 -13.80 -3.80 -3.50 -0.45 -4.80 -0.40 -8.85 0.45 -12.05 2.50 -21.45 9.15 -26.30 18.70 -1.45 2.85 -2.40 8.70 -1.95 11.85 0.45 3.05 2.85 7.85 5.15 10.25 2.10 2.20 8.55 5.45 12.35 6.25 4 0.80 13.90 0.30 17.95 -0.95z"/>
 </g>
 <g fill="#47443e">
  <path d="M310.50 474.70 c-3.60 -0.70 -8.90 -2.45 -10.45 -3.45 -2.80 -1.75 -4.05 -4.75 -4.05 -9.75 0 -3.35 0.25 -4.65 1.30 -7 1.25 -2.85 3.60 -5 11.70 -11.05 0.95 -0.70 3.05 -2.45 4.65 -3.90 l2.85 -2.65 0 -18.90 0 -18.90 -5.85 -1.60 c-3.25 -0.85 -9.50 -2.55 -13.90 -3.75 -4.40 -1.20 -12.15 -3.30 -17.25 -4.70 -5.10 -1.35 -10.95 -2.95 -13 -3.50 -2.05 -0.55 -8.30 -2.25 -13.85 -3.75 -5.55 -1.55 -10.45 -2.80 -10.85 -2.80 -0.50 0 -0.85 0.70 -1.05 1.90 -0.20 1 -0.90 3.65 -1.65 5.85 -2.70 8 -8.70 15.20 -15.85 18.95 -1.35 0.75 -2.80 1.65 -3.25 2 -1.15 1 -10.35 2 -14.95 1.65 -4.35 -0.35 -10.95 -2.30 -13.15 -3.85 -0.75 -0.55 -1.50 -1 -1.70 -1 -0.15 0 -1.40 -0.95 -2.80 -2.05 -2.95 -2.50 -2.40 -2.65 -11.40 3.15 -6.70 4.35 -9.65 6.20 -14.05 9.05 l-2.85 1.75 -0.20 6.95 c-0.30 7.75 -1.10 11.60 -3.65 16.75 -3.45 7 -6.80 10.55 -13.80 14.80 -8.75 5.25 -14.95 7 -23.25 6.45 -6.50 -0.45 -8.80 -1.05 -14.70 -3.95 -4.70 -2.30 -5.80 -3.15 -10.25 -7.65 -7.70 -7.70 -12.05 -16.15 -13.70 -26.75 -1.50 -9.15 0.30 -20.85 4.15 -26.90 0.70 -1.15 1.30 -2.30 1.30 -2.50 0 -0.25 1.85 -2.25 4.15 -4.45 4 -3.85 8.20 -6.75 11.85 -8.10 0.95 -0.40 2.65 -1.10 3.75 -1.60 3.80 -1.70 8 -2.55 14.10 -2.80 l6.10 -0.25 1.50 -3.60 c0.80 -1.95 2.40 -5.55 3.55 -8.05 3.85 -8.35 11 -25.15 11 -25.85 0 -0.50 -3.65 -1.60 -12.60 -3.85 -6.95 -1.75 -16.70 -4.25 -21.65 -5.55 -4.95 -1.30 -11.15 -2.85 -13.75 -3.45 -8.80 -2.05 -12.65 -4.95 -14 -10.60 -0.45 -1.80 -0.65 -12.65 -0.70 -39.85 -0.05 -34.60 0 -37.55 0.85 -40.35 1.40 -4.75 21 -43.60 23.35 -46.35 2.25 -2.60 6.70 -5.40 8.55 -5.40 0.70 0 2 -0.55 3 -1.20 1.95 -1.35 7.05 -3.50 9.40 -4.05 0.80 -0.15 1.75 -0.65 2.10 -1.05 0.30 -0.40 0.90 -0.70 1.25 -0.70 0.40 0 1.10 -0.20 1.60 -0.45 1.80 -0.95 5.60 -2.55 6.10 -2.55 0.30 0 0.90 -0.20 1.40 -0.45 1.80 -0.90 6.45 -3.05 8.80 -4.05 3.05 -1.25 11.50 -1.40 18.10 -0.20 10.35 1.80 16.35 2.75 16.45 2.60 0.05 -0.10 1.85 -2.80 4.05 -6 2.15 -3.25 4.70 -6.95 5.60 -8.25 0.90 -1.35 2.50 -4.10 3.55 -6.15 3.95 -7.80 7.10 -12 14.30 -18.85 3.75 -3.65 7.60 -6.95 8.50 -7.35 0.90 -0.45 1.90 -1.10 2.25 -1.55 0.95 -1.15 6.50 -3.75 8 -3.75 0.75 0 1.80 -0.50 2.45 -1.20 1.45 -1.55 7.60 -3.70 13.15 -4.55 1 -0.15 2.50 -0.60 3.25 -1 1.10 -0.60 3.70 -0.75 12.15 -0.75 12.05 0 14.55 0.40 22.65 3.30 4.95 1.75 5.30 1.80 11.30 1.70 3.35 -0.05 6.85 -0.30 7.70 -0.55 2.20 -0.60 25.50 -0.60 29.50 0.05 7 1.10 17.35 5.15 24.50 9.60 3.90 2.45 10.75 7.70 14.30 11.05 l2.45 2.30 -0.15 3.40 c-0.10 1.85 0.15 4.80 0.55 6.55 0.80 3.65 0.90 6.50 0.20 7.60 -0.35 0.50 -0.50 -0.30 -0.50 -2.70 l0 -3.50 -4.60 -4.45 c-12.20 -11.75 -24.20 -19 -36.10 -21.75 -6.90 -1.60 -33.10 -0.75 -49.55 1.60 -7.80 1.15 -16.85 2.75 -18.25 3.25 -0.70 0.30 -2.45 0.70 -3.85 1 -2.75 0.55 -10.45 3.45 -13.90 5.15 -22.55 11.50 -35.55 40.25 -32.25 71.30 1.50 13.80 5.75 28.25 12.10 40.85 10.60 21.10 29.10 40.05 49.65 50.70 6.25 3.30 12.70 5.70 20.65 7.70 6.20 1.55 6.60 1.60 17.35 1.60 11.75 0 13.95 -0.30 21 -2.75 20.05 -6.90 33.60 -20.60 47.05 -47.50 2.10 -4.25 4.50 -9.30 5.35 -11.25 4.35 -10.20 7.10 -17.60 8.50 -22.75 1.50 -5.40 1.60 -6.25 1.60 -14.50 0 -4.80 -0.15 -9.35 -0.40 -10.10 -0.65 -2.50 -1.95 -1.65 -4.65 3 -2.45 4.15 -2.55 4.55 -2.85 9.10 -0.60 8.30 -2.75 14.65 -7.10 20.75 -3.05 4.25 -6.15 6.95 -10.60 9.05 -8.10 3.90 -16.05 4.15 -25.65 0.85 -10.05 -3.45 -18 -8.60 -26.55 -17.10 -6.90 -6.90 -10.95 -12.55 -15.25 -21.30 -7 -14.30 -9 -22.55 -8.55 -35.50 0.35 -11.85 2.70 -18.70 8.40 -24.95 3.85 -4.20 8 -7.05 11.80 -8.10 1.75 -0.50 5.70 -0.95 9.80 -1.05 6.40 -0.25 7.15 -0.20 11.15 1.10 2.40 0.70 6.80 2.65 9.85 4.30 8.20 4.40 12.60 7.90 19 15.20 1.95 2.20 4.10 4.40 4.80 4.85 1.60 1.10 1.30 1.10 -1.35 0.20 -1.15 -0.40 -4.15 -0.90 -6.70 -1.05 -4.15 -0.30 -5.20 -0.20 -9.65 1 -2.75 0.75 -6.20 2 -7.70 2.80 -1.50 0.80 -3 1.45 -3.35 1.45 -0.90 0 -7.25 4.30 -8.60 5.90 -0.65 0.75 -2.15 2.35 -3.35 3.60 -2.85 3 -6.95 9.30 -7.95 12.15 -0.95 2.90 -1.80 7.85 -1.80 11 0 2.85 2.15 9.75 3.95 12.70 1.70 2.70 8.80 9 11.05 9.70 0.95 0.30 2.20 0.85 2.75 1.15 3.90 2.35 10 3.05 20.15 2.30 6.40 -0.45 9.20 -1.15 18 -4.40 3.30 -1.20 8.75 -5.95 11.75 -10.20 2.70 -3.90 5.85 -8.90 5.85 -9.35 0 -0.15 0.90 -1.45 2.05 -2.80 l2.05 -2.45 -0.40 -3.55 c-0.45 -4 -0.45 -4.70 -0.95 -40.40 -0.30 -19.55 -0.25 -26.35 0.20 -26.35 0.40 0 0.55 6.75 0.55 25.25 l0 25.25 1.80 4.60 c4.55 11.90 6.40 20.75 6.35 31.15 0 10.80 -1.75 19.50 -5.70 29 -0.85 1.95 -1.90 4.50 -2.45 5.75 -1.70 4 -4.35 10.15 -6.40 14.75 -1.10 2.50 -2.15 5.65 -2.35 7 -1.20 8.70 -4.95 20.80 -8.65 27.75 -5.80 10.90 -11.35 17.75 -19.85 24.25 -1.90 1.50 -3.95 3.10 -4.50 3.60 -1 0.90 -1 1.45 -0.85 44.95 l0.10 44.10 5.40 0.20 c9.75 0.45 14.20 2.85 15.90 8.70 1.05 3.60 0.75 8.20 -0.70 11.05 -1.40 2.70 -3.25 4.60 -9.85 10.10 -3 2.50 -7.30 6.15 -9.55 8.05 -2.20 1.90 -5.35 4.55 -7 5.85 -1.65 1.30 -4.55 3.80 -6.50 5.45 -1.90 1.70 -5.90 5.30 -8.95 7.95 -6.60 5.85 -9.50 7.35 -14.45 7.55 -1.95 0.05 -4.10 0 -4.80 -0.10z m6.70 -8.20 c1.25 -0.45 9.40 -7.05 10.75 -8.70 0.35 -0.45 0.95 -0.80 1.25 -0.80 0.30 0 1.80 -1.25 3.30 -2.75 1.50 -1.50 2.90 -2.75 3.15 -2.75 0.25 0 2.60 -2.05 5.25 -4.55 2.65 -2.50 5.85 -5.25 7.10 -6.10 2.70 -1.85 14.30 -11.90 15.85 -13.80 1.25 -1.40 1.50 -4.05 0.70 -6.20 -0.65 -1.65 -4.40 -3.05 -8.10 -3.10 -2.40 0 -3.15 0.25 -5.05 1.60 -1.25 0.85 -3.35 2 -4.70 2.55 -1.35 0.55 -2.80 1.10 -3.20 1.30 -0.70 0.30 -0.80 -5.15 -0.90 -48.30 -0.10 -26.75 -0.25 -48.70 -0.35 -48.80 -0.10 -0.10 -1.75 0.50 -3.65 1.35 -1.95 0.85 -5.60 2.10 -8.15 2.80 -2.55 0.65 -4.85 1.45 -5.10 1.70 -0.25 0.25 -0.50 21.80 -0.55 54.05 l-0.05 53.65 -4.25 3.95 c-2.35 2.20 -6.85 6.10 -10.05 8.70 -3.30 2.65 -5.95 5.15 -6.15 5.80 -0.15 0.65 -0.30 2.30 -0.30 3.65 0 2.05 0.20 2.65 1.15 3.20 2.85 1.85 9.25 2.65 12.05 1.55z m-193.90 -15.05 c4.15 -0.75 5.80 -1.35 10.95 -4.15 5.50 -2.95 8.70 -5.95 11.25 -10.55 3.10 -5.65 4.20 -10.10 3.85 -15.75 -0.90 -16.65 -13.35 -32.20 -27.85 -34.95 -4.75 -0.90 -9.20 0.15 -16.50 3.80 -7.45 3.80 -10.10 6.30 -13.20 12.70 -2.75 5.70 -3.50 9.25 -3.15 14.95 0.40 5.35 1.35 9.05 3.85 14.30 2.55 5.50 5.80 9.60 10.35 13.25 4.45 3.55 6.45 4.60 11 5.90 4 1.15 5.45 1.25 9.45 0.50z m35.50 -44.20 c0.50 -0.40 1.30 -0.75 1.75 -0.75 0.45 0 1.40 -0.45 2.10 -1 0.70 -0.55 1.55 -1 1.85 -1 0.35 0 1.65 -0.90 2.90 -2 1.25 -1.15 3.70 -2.70 5.45 -3.55 1.75 -0.85 4.30 -2.45 5.60 -3.60 1.35 -1.15 3.95 -3 5.80 -4.10 1.85 -1.10 4.25 -2.70 5.40 -3.55 1.15 -0.85 3.75 -2.55 5.80 -3.75 2.05 -1.20 4.80 -3.20 6.15 -4.35 2.20 -2 2.40 -2.40 2.40 -4.45 0 -2.60 -2.30 -6.40 -4.35 -7.20 -2.30 -0.85 -11.70 -3.10 -11.95 -2.85 -0.15 0.15 0.15 1.25 0.60 2.45 0.75 2.10 2.10 3.60 4.80 5.55 l1.15 0.85 -1.25 1.25 c-1.15 1.15 -5.75 4.15 -22.25 14.55 -10.95 6.85 -16.75 10.75 -16.75 11.25 0 0.25 0.40 1.55 0.90 2.85 0.55 1.30 1.10 2.80 1.25 3.30 0.40 1.05 1.35 1.10 2.65 0.10z m54.85 -8.25 c8.15 -2.50 14.20 -8.90 16.90 -17.65 l0.85 -2.90 -1.30 -0.50 c-1.15 -0.45 -16.35 -4.45 -16.90 -4.45 -0.10 0 -0.20 1.30 -0.20 2.90 0 2.30 -0.35 3.65 -1.55 6 -1.65 3.35 -3.90 5.30 -11.70 10.20 -2.35 1.45 -4.25 2.85 -4.25 3.05 0 0.55 4.75 2.65 8 3.55 3.80 1 6.35 0.95 10.15 -0.20z m-55.60 -10.35 c2.30 -1.30 5.95 -3.55 8.05 -5 2.10 -1.45 4.15 -2.65 4.55 -2.65 0.35 0 1.15 -0.50 1.75 -1.15 1.05 -1.10 1.05 -1.35 0.55 -5.75 -0.40 -3.20 -0.40 -5.90 -0.05 -8.95 0.30 -2.45 0.45 -4.50 0.35 -4.60 -0.10 -0.10 -1.20 -0.30 -2.45 -0.40 l-2.25 -0.30 -7.20 14.70 c-7.05 14.35 -8 16.45 -7.65 16.45 0.10 0 2.05 -1.05 4.35 -2.35z m158.95 -7 c0 -5.20 -0.20 -9.70 -0.40 -10.05 -0.25 -0.30 -4.45 -1.60 -9.40 -2.85 -4.90 -1.25 -10.85 -2.85 -13.20 -3.50 -2.35 -0.70 -12.45 -3.35 -22.50 -5.95 -16.05 -4.10 -32.65 -8.45 -48 -12.60 -10.05 -2.70 -11.35 -3.15 -12.15 -4.35 -0.45 -0.65 -2.40 -3.10 -4.40 -5.40 -5.40 -6.25 -15.10 -18.30 -20.10 -24.90 -5.25 -6.85 -7.15 -9.05 -8 -9.05 -0.30 0 -1.80 0.60 -3.25 1.35 -1.75 0.90 -2.70 1.70 -2.95 2.55 -0.15 0.65 -0.20 3.95 -0.05 7.30 l0.25 6.15 2.20 2.90 c3.25 4.30 3.70 4.90 9.60 12.20 2.95 3.75 5.35 7 5.35 7.30 0 0.95 -2 2.75 -3 2.75 -0.55 0 -2.15 -1.60 -4.25 -4.25 -1.95 -2.50 -3.65 -4.25 -4.20 -4.25 -1.30 0 -4.90 2.75 -6.05 4.65 -0.80 1.25 -1 2.50 -1 5.75 0 3.80 0.10 4.15 1.15 4.60 0.95 0.40 10.70 3 34.85 9.30 2.60 0.70 7 1.90 9.75 2.70 2.75 0.75 7.70 2.10 11 3 3.30 0.85 15.55 4.15 27.25 7.30 11.70 3.15 22.50 6.05 24 6.45 2.80 0.70 6.25 1.65 23 6.20 5.10 1.40 10.25 2.85 11.50 3.25 1.25 0.40 2.40 0.75 2.65 0.75 0.20 0.05 0.35 -4.15 0.35 -9.30z m-169.15 2.25 c1.30 -2.55 3.05 -6.20 3.95 -8.15 0.85 -1.90 3.70 -7.90 6.30 -13.25 2.65 -5.35 6.30 -13 8.10 -17 4.30 -9.30 3.90 -8.65 5.60 -9.40 4.60 -2.05 4.90 -2.50 2.80 -5 l-1.40 -1.65 -3.45 2.10 c-4.25 2.55 -12.45 6.70 -15.30 7.70 -1.15 0.40 -2.75 0.75 -3.55 0.75 -0.90 0 -1.55 0.30 -1.70 0.90 -0.15 0.45 -0.95 2.45 -1.80 4.35 -0.85 1.95 -3.10 7.10 -5 11.50 -1.90 4.40 -4.65 10.70 -6.15 14 -3.80 8.45 -3.80 8.25 -0.95 9.75 2.95 1.55 7.65 5.15 8.85 6.75 0.50 0.70 1 1.25 1.15 1.25 0.10 0 1.25 -2.10 2.55 -4.60z m168.65 -35.65 c0 -7.85 -0.15 -14.25 -0.30 -14.25 -0.60 0 -6.05 1.60 -8.45 2.50 -1.35 0.50 -4.75 1.45 -7.50 2.05 -2.75 0.60 -5.30 1.25 -5.75 1.50 -0.85 0.40 -17.45 2 -21 1.95 -4.20 0 -18.25 -2 -23.50 -3.35 -14.85 -3.70 -32.05 -12.50 -41.90 -21.45 l-3.15 -2.85 -2 0.65 c-1.10 0.40 -2.10 0.85 -2.25 1.10 -0.15 0.25 0.85 1.70 2.20 3.30 1.35 1.55 3.35 4 4.40 5.40 8.50 11.05 10 12.35 16.25 13.65 1.50 0.30 6.65 1.70 11.45 3.05 4.80 1.35 10.10 2.80 11.75 3.25 20.10 5.10 33.45 8.60 42.75 11.10 11.25 3 25.30 6.55 26.15 6.60 0.80 0.05 0.85 -0.95 0.85 -14.20z m-28.50 -15.25 c4.20 -0.60 7.85 -1.15 8.10 -1.30 0.90 -0.55 0.30 -1.20 -1.15 -1.20 -2.50 0 -12.60 -2.40 -18.05 -4.30 -36.15 -12.60 -65.60 -41.50 -81.65 -80.20 -4.60 -11.10 -8 -24.70 -9.30 -37.25 -0.70 -7.10 -0.30 -24.10 0.70 -29.65 1 -5.50 -0.20 -4.60 -4.05 3.15 -4.25 8.45 -5.35 11.30 -7.10 18.30 -5 19.75 -4.30 39.50 2.05 58.65 10.80 32.45 38.25 60.25 69.05 70 14.80 4.65 26.65 5.75 41.40 3.80z m-139.05 -129.75 c1.60 -4.90 4.65 -8.10 9.80 -10.25 4.90 -2 12.95 -6.25 13.30 -7 1.90 -3.75 2.90 -6.70 2.45 -7 -0.30 -0.20 -2.05 -0.60 -3.90 -0.90 -19.50 -3.35 -20.50 -3.30 -27.85 0.15 -2.75 1.30 -9.65 4.25 -15.30 6.50 -13.40 5.40 -16.95 7.20 -18.85 9.65 -1.40 1.75 -19.60 37.50 -21.55 42.35 -0.70 1.75 -0.80 5.45 -0.80 31.75 0 16.35 0.10 33.45 0.25 37.90 0.25 7.70 0.30 8.25 1.35 9.10 1.70 1.35 3.75 1.95 39.65 11.10 7.55 1.90 15.20 3.90 17 4.35 l3.25 0.85 0.25 -63.25 c0.20 -50.60 0.40 -63.70 0.95 -65.30z m7.75 126.50 c1.25 -0.70 2.65 -1.25 3.15 -1.25 0.50 0 1.70 -0.65 2.65 -1.50 0.95 -0.80 2 -1.45 2.25 -1.50 0.30 0 1 -0.40 1.60 -0.90 l1.10 -0.85 0.10 -35 c0.05 -30.90 -0.05 -35.35 -0.75 -38.10 -3.95 -15.15 -3.40 -38.55 1.30 -53.05 0.55 -1.75 0.85 -3.30 0.70 -3.45 -0.45 -0.45 -11.60 4.85 -12.70 6.05 -0.55 0.55 -1.40 1.85 -1.90 2.80 -0.90 1.70 -0.95 4.35 -1.10 64.90 -0.10 55.45 -0.05 63.10 0.60 63.10 0.45 0 1.75 -0.55 3 -1.25z m163.05 -4.75 c0.30 -0.20 1.75 -0.50 3.25 -0.70 5.75 -0.70 11.60 -2.95 20.25 -7.80 10.15 -5.75 21.15 -17.50 26.25 -28.25 1.95 -4.05 4.10 -10.30 3.70 -10.70 -0.30 -0.35 -0.70 0.15 -4.40 5.25 -3.60 4.90 -11.40 12.80 -16.15 16.40 -6.15 4.60 -11.90 7.60 -19.30 10.05 -10.20 3.35 -13.90 3.90 -24.85 3.65 -10.10 -0.25 -16.55 -1.40 -25.45 -4.50 -11.40 -3.95 -26.20 -12.80 -35.85 -21.30 -23.35 -20.75 -37.35 -47.35 -41.20 -78.35 -1.80 -14.40 0.70 -33.85 5.80 -45.25 3.85 -8.60 12.80 -21.50 16.10 -23.20 0.75 -0.40 1.80 -1.20 2.35 -1.80 2.10 -2.35 10.15 -7.15 15 -8.95 9.05 -3.35 14.70 -4.85 21.25 -5.60 3.65 -0.40 5.55 -0.90 6.20 -1.50 0.90 -0.80 0.80 -0.90 -2.55 -1.65 -18.75 -4.25 -38.45 0.30 -53.60 12.45 -6.30 4.95 -14.05 14.85 -17.40 22.10 -11.90 25.80 -11.30 59.35 1.70 90.30 4.60 10.95 12.60 24.25 20.50 34.10 4.20 5.25 15.95 17.10 20.65 20.85 14.15 11.40 30 19.20 46.75 23.20 3.05 0.70 7.30 1.45 9.50 1.70 4.50 0.45 20.75 0.05 21.50 -0.50z m-126.25 -15.75 l1.20 -1.25 -1.10 -1 c-0.60 -0.55 -1.20 -1.95 -1.40 -3.25 -0.15 -1.30 -0.85 -2.90 -1.45 -3.65 -1.55 -1.85 -9.10 -13.50 -11.95 -18.35 -1.25 -2.25 -3.10 -5.85 -4.05 -8 -0.95 -2.20 -1.90 -4.05 -2.20 -4.15 -0.40 -0.15 -0.15 30.40 0.30 30.85 0.10 0.15 1.40 -0.35 2.85 -1.10 4.15 -2.10 5.30 -1.90 8.25 1.60 1.35 1.65 3.50 4.45 4.80 6.25 1.30 1.80 2.60 3.30 2.95 3.30 0.35 0 1.15 -0.55 1.80 -1.25z"/>
  <path d="M108.40 444.55 c-3.60 -1.45 -5.60 -2.85 -8.45 -5.95 -5.75 -6.30 -8.50 -16.05 -7 -25.10 1.20 -7.15 4.35 -11.85 9.75 -14.50 3.10 -1.55 3.35 -1.60 9.15 -1.40 5.50 0.15 6.15 0.25 9.25 1.80 4.20 2.05 7.70 5.80 10.35 11.10 2.65 5.25 3.20 8.35 2.95 16 -0.20 6.15 -0.20 6.30 -2.05 9.65 -2.25 3.95 -4.55 6.40 -7.50 7.95 -3 1.60 -12.95 1.85 -16.45 0.45z m13 -6.50 c2.50 -1.30 3.80 -2.75 5.45 -6.30 1.25 -2.65 1.40 -3.55 1.35 -7.75 -0.05 -5.80 -1.20 -9.15 -4.65 -13.65 -1.80 -2.35 -3.15 -3.50 -5.60 -4.75 -2.95 -1.55 -3.50 -1.70 -7 -1.50 -3.25 0.15 -4.10 0.35 -5.95 1.65 -4.20 2.90 -6.35 8.10 -5.85 14.20 0.70 8.20 5.95 15.80 12.75 18.30 2.80 1 7.30 0.95 9.50 -0.20z"/>
  <path d="M124.75 309.75 c-5.80 -1.45 -14.10 -3.60 -18.50 -4.70 -10.65 -2.75 -10.35 -2.55 -10.15 -5.20 0.15 -1.95 0.25 -2.10 1.70 -2.25 0.85 -0.10 6.25 1.10 12 2.60 5.75 1.50 13.85 3.55 18.05 4.55 8 1.90 10.15 2.95 10.15 5 0 1.25 -1.20 2.75 -2.15 2.75 -0.35 -0.05 -5.30 -1.25 -11.10 -2.75z"/>
  <path d="M131.50 297 c-8.85 -2.10 -33.25 -8.60 -34.10 -9.05 -2.45 -1.30 -2.05 -4.95 0.55 -4.95 1.20 0 31.10 7.35 36.50 8.95 3.25 1 4.55 3.45 2.75 5.25 -0.90 0.95 -0.95 0.95 -5.70 -0.20z"/>
  <path d="M127.25 281.30 c-5.25 -1.40 -18.10 -4.75 -27.65 -7.15 -3.40 -0.85 -4.40 -1.85 -3.90 -3.95 0.35 -1.40 2.10 -1.95 4.45 -1.50 1.45 0.30 26.35 6.65 33.85 8.70 2.75 0.70 3.30 1.05 3.70 2.25 1.25 3.55 -1.70 4 -10.45 1.65z"/>
  <path d="M415.75 177.30 c-2.35 -1.30 -4.10 -3.70 -4.55 -6.15 -0.50 -2.65 1.75 -9.35 3.20 -9.55 1.05 -0.15 1.10 -0.05 1.10 5.85 0 3.30 -0.20 6.10 -0.45 6.25 -0.25 0.15 -0.30 -1.10 -0.20 -2.90 0.50 -5.85 -0.95 -7.80 -2.50 -3.40 -1.15 3.20 -0.50 5.35 2.30 7.95 1.20 1.10 2.50 2.10 2.90 2.25 0.40 0.15 0.60 0.40 0.45 0.55 -0.15 0.15 -1.15 -0.25 -2.25 -0.85z"/>
  <path d="M427.95 172.95 c7.25 -8.20 12.05 -20.35 12.05 -30.65 0 -1.75 0.20 -2.80 0.60 -2.80 1.20 0 -0.35 12.35 -2.15 16.75 -0.35 0.85 -0.65 1.80 -0.75 2.15 -0.35 1.85 -3.60 7.75 -6.45 11.90 -2.85 4.10 -5.85 7.20 -6.95 7.20 -0.15 0 1.45 -2.05 3.65 -4.55z"/>
  <path d="M369 102 c0 -19.05 0.15 -34.50 0.35 -34.35 0.35 0.40 0.20 68.45 -0.15 68.80 -0.10 0.10 -0.20 -15.40 -0.20 -34.45z"/>
 </g>
 <g fill="#010100">
  <path d="M303.50 472.85 c-3.10 -1.05 -4.90 -2.45 -6.25 -4.90 -1.15 -2.15 -1.25 -2.85 -1.15 -6.75 0.10 -2.40 0.40 -4.45 0.65 -4.55 0.30 -0.10 0.45 1.65 0.35 4.75 -0.15 4.30 -0.05 5.15 0.90 6.75 1.20 2 3.40 3.55 5.85 4.10 0.90 0.15 1.75 0.55 1.90 0.80 0.40 0.55 -0.05 0.55 -2.25 -0.20z"/>
  <path d="M112.35 452.45 c-4.55 -1.30 -6.55 -2.35 -11 -5.90 -4.55 -3.65 -7.80 -7.75 -10.35 -13.25 -2.70 -5.75 -3.55 -9.15 -3.85 -15.80 -0.35 -7.35 0.30 -10.50 3.15 -16.45 3.10 -6.40 5.75 -8.90 13.20 -12.70 10.25 -5.15 17 -5.60 25.75 -1.75 8.95 4 16.35 12.70 19.85 23.40 1.25 3.95 1.55 5.80 1.75 11 0.25 5.45 0.15 6.75 -0.85 10 -1.45 5 -4.40 10.25 -7.35 13.05 -2.35 2.30 -9.70 6.60 -13.15 7.80 -5.45 1.85 -12 2.05 -17.15 0.60z m11 -9.85 c2.95 -1.55 5.25 -4 7.45 -7.90 1.70 -3.05 1.90 -3.75 2.10 -8.15 0.30 -6.05 -0.40 -9.45 -2.95 -14.55 -2.65 -5.30 -6.15 -9.05 -10.35 -11.10 -2.85 -1.40 -3.95 -1.70 -7.75 -1.85 -4.15 -0.15 -4.65 -0.05 -7.60 1.40 -5.65 2.80 -8.75 7.60 -9.85 15.35 -1 6.85 1.95 15.75 7.05 21.30 2.85 3.10 4.80 4.50 8.45 5.95 3.30 1.35 10.45 1.10 13.45 -0.45z"/>
  <path d="M314.95 438.30 l1.55 -1.60 0 -18.65 c0 -12.25 0.15 -18.50 0.50 -18.30 0.30 0.20 0.50 6.85 0.50 18.35 0 17.20 -0.05 18.10 -1 19.65 -0.55 0.90 -1.50 1.75 -2.10 1.90 -0.90 0.25 -0.80 0.05 0.55 -1.35z"/>
  <path d="M371.70 428.50 c0.15 -0.70 0.30 -2.55 0.30 -4.10 0 -1.85 0.20 -2.90 0.55 -2.90 0.75 0 0.30 6 -0.50 7.30 -0.55 0.85 -0.60 0.85 -0.35 -0.30z"/>
  <path d="M203.75 401.15 c-4.75 -1.05 -11.75 -4.40 -11.75 -5.60 0 -0.25 2.40 -1.95 5.30 -3.80 9.15 -5.85 11 -7.45 12.75 -11 1.30 -2.65 1.50 -3.60 1.35 -5.85 -0.10 -1.45 -0.30 -3 -0.45 -3.40 -0.10 -0.50 0.05 -0.70 0.55 -0.55 0.40 0.10 2.80 0.75 5.25 1.45 2.50 0.65 7.10 1.90 10.25 2.80 6.65 1.80 6.70 1.85 5.25 7 -2.55 9.05 -8.80 15.75 -17.10 18.30 -3.05 0.95 -8.70 1.25 -11.40 0.65z"/>
  <path d="M172.35 379.90 c1.10 -1.15 1.10 -1.40 0.60 -5.45 -0.50 -4.05 -0.20 -11.20 0.45 -11.65 0.30 -0.15 0.45 14.50 0.15 16.55 0 0.35 -0.55 0.90 -1.15 1.20 l-1.15 0.60 1.10 -1.25z"/>
  <path d="M264 349.95 c-2.05 -0.55 -6.20 -1.65 -9.25 -2.45 -3 -0.85 -6.25 -1.50 -7.10 -1.50 -0.90 0 -1.65 -0.25 -1.65 -0.55 0 -0.35 0.65 -0.45 1.65 -0.35 2.60 0.40 20.05 5 20.60 5.50 0.65 0.55 0.10 0.50 -4.25 -0.65z"/>
  <path d="M237 342.65 c-2.35 -0.65 -5.30 -1.35 -6.65 -1.50 -2.20 -0.25 -3.30 -0.85 -2.70 -1.45 0.20 -0.25 14.35 3.70 14.80 4.10 0.45 0.40 -1.35 0.05 -5.45 -1.15z"/>
  <path d="M316.85 342.65 c-0.55 -0.55 -0.40 -8.15 0.15 -8.15 0.30 0 0.50 1.75 0.50 4.25 0 4.25 -0.05 4.55 -0.65 3.90z"/>
  <path d="M382 273.55 c0 -1.45 0.70 -2.45 1.15 -1.70 0.40 0.60 -0.20 3.15 -0.70 3.15 -0.25 0 -0.45 -0.65 -0.45 -1.45z"/>
  <path d="M398.20 228.65 c0.20 -0.80 0.60 -2.65 0.95 -4.15 l0.60 -2.75 0.15 1.95 c0.10 1.05 0 2.30 -0.20 2.75 -0.40 0.90 -0.50 1.40 -0.60 2.70 -0.05 0.45 -0.35 0.85 -0.65 0.85 -0.35 0 -0.45 -0.50 -0.25 -1.35z"/>
  <path d="M321.35 116.65 c-2.40 -0.40 -1.05 -0.90 1.85 -0.75 1.55 0.10 2.70 0.40 2.50 0.65 -0.25 0.45 -1.75 0.50 -4.35 0.10z"/>
  <path d="M244 112.80 c0.30 -0.30 2.90 -0.60 6.15 -0.65 5.05 -0.05 5.25 -0.05 2.35 0.35 -6.05 0.75 -9.10 0.90 -8.50 0.30z"/>
 </g>
</svg>